<svg width="40" height="40" viewBox="0 0 40 40" fill="none" xmlns="http://www.w3.org/2000/svg">
<path d="M32 20.0026C32.0005 17.7092 31.3438 15.4638 30.1077 13.532C28.8716 11.6003 27.1078 10.0633 25.0252 9.10287C22.9426 8.14249 20.6284 7.799 18.3566 8.11307C16.0849 8.42714 13.9507 9.38562 12.2068 10.875C10.4628 12.3644 9.18225 14.3224 8.51659 16.517C7.85094 18.7116 7.82811 21.0511 8.45082 23.2583C9.07352 25.4655 10.3157 27.448 12.0302 28.9712C13.7447 30.4943 15.8598 31.4943 18.125 31.8526V23.4706H15.079V20.0026H18.125V17.3576C18.0596 16.7404 18.1307 16.1163 18.3333 15.5296C18.5359 14.9429 18.865 14.4079 19.2973 13.9625C19.7296 13.5171 20.2546 13.1722 20.835 12.9522C21.4154 12.7323 22.0371 12.6426 22.656 12.6896C23.556 12.7016 24.454 12.7796 25.343 12.9236V15.8806H23.831C23.5734 15.8468 23.3115 15.8714 23.0648 15.9526C22.818 16.0337 22.5926 16.1694 22.4053 16.3494C22.2181 16.5295 22.0737 16.7494 21.983 16.9928C21.8922 17.2362 21.8573 17.4969 21.881 17.7556V20.0056H25.209L24.677 23.4736H21.875V31.8606C24.6984 31.414 27.2697 29.9741 29.1259 27.8002C30.9821 25.6263 32.0013 22.8612 32 20.0026V20.0026Z" fill="white"/>
</svg>
