<svg width="40" height="40" viewBox="0 0 40 40" fill="none" xmlns="http://www.w3.org/2000/svg">
<path d="M27.2362 15.4582C26.9662 15.7283 26.5999 15.88 26.218 15.88C25.8361 15.88 25.4698 15.7283 25.1998 15.4582C24.9297 15.1882 24.778 14.8219 24.778 14.44C24.778 14.0581 24.9297 13.6918 25.1998 13.4218C25.4698 13.1517 25.8361 13 26.218 13C26.5999 13 26.9662 13.1517 27.2362 13.4218C27.5063 13.6918 27.658 14.0581 27.658 14.44C27.658 14.8219 27.5063 15.1882 27.2362 15.4582Z" fill="white"/>
<path fill-rule="evenodd" clip-rule="evenodd" d="M14 20.602C14 23.911 16.691 26.602 20 26.602C23.309 26.602 26 23.911 26 20.602C26 17.293 23.309 14.602 20 14.602C16.691 14.602 14 17.293 14 20.602ZM17 20.602C17 18.947 18.345 17.602 20 17.602C21.655 17.602 23 18.947 23 20.602C23 22.257 21.655 23.602 20 23.602C18.345 23.602 17 22.257 17 20.602Z" fill="white"/>
<path fill-rule="evenodd" clip-rule="evenodd" d="M8 26C8 29.084 10.916 32 14 32H26C29.084 32 32 29.084 32 26V14C32 10.916 29.084 8 26 8H14C10.916 8 8 10.916 8 14V26ZM11 14C11 12.598 12.598 11 14 11H26C27.402 11 29 12.598 29 14V26C29 27.402 27.402 29 26 29H14C12.57 29 11 27.43 11 26V14Z" fill="white"/>
</svg>
