<svg width="40" height="40" viewBox="0 0 40 40" fill="none" xmlns="http://www.w3.org/2000/svg">
<path d="M30.95 8H9.05C8.45 8 8 8.45 8 9.05V31.1C8 31.55 8.45 32 9.05 32H31.1C31.7 32 32.15 31.55 32.15 30.95V9.05C32 8.45 31.55 8 30.95 8ZM15.05 28.4H11.6V17H15.2V28.4H15.05ZM13.4 15.5C12.2 15.5 11.3 14.45 11.3 13.4C11.3 12.2 12.2 11.3 13.4 11.3C14.6 11.3 15.5 12.2 15.5 13.4C15.35 14.45 14.45 15.5 13.4 15.5ZM28.4 28.4H24.8V22.85C24.8 21.5 24.8 19.85 23 19.85C21.2 19.85 20.9 21.35 20.9 22.85V28.55H17.3V17H20.75V18.5C21.2 17.6 22.4 16.7 24.05 16.7C27.65 16.7 28.25 19.1 28.25 22.1V28.4H28.4Z" fill="white"/>
</svg>
