<svg width="40" height="40" viewBox="0 0 40 40" fill="none" xmlns="http://www.w3.org/2000/svg">
<path d="M32 12.25C31.1 12.7 30.2 12.85 29.15 13C30.2 12.4 30.95 11.5 31.25 10.3C30.35 10.9 29.3 11.2 28.1 11.5C27.2 10.6 25.85 10 24.5 10C21.95 10 19.7 12.25 19.7 14.95C19.7 15.4 19.7 15.7 19.85 16C15.8 15.85 12.05 13.9 9.65 10.9C9.2 11.65 9.05 12.4 9.05 13.45C9.05 15.1 9.95 16.6 11.3 17.5C10.55 17.5 9.8 17.2 9.05 16.9C9.05 19.3 10.7 21.25 12.95 21.7C12.5 21.85 12.05 21.85 11.6 21.85C11.3 21.85 11 21.85 10.7 21.7C11.3 23.65 13.1 25.15 15.35 25.15C13.7 26.5 11.6 27.25 9.2 27.25H8C10.25 28.6 12.8 29.5 15.5 29.5C24.5 29.5 29.45 22 29.45 15.55V14.95C30.5 14.2 31.4 13.3 32 12.25Z" fill="white"/>
</svg>
